solid Item40Plug
facet normal -0.7071067811865462 0.707106781186549 0.0
  outer loop
    vertex 1.171572875253811 38.82842712474619 6.8
    vertex 0.5358983848622466 38.00000000000001 0.0
    vertex 0.5358983848622466 38.00000000000001 6.8
  endloop
endfacet
facet normal -0.8660254037844387 0.5 0.0
  outer loop
    vertex 0.5358983848622466 38.00000000000001 0.0
    vertex 1.171572875253811 38.82842712474619 6.8
    vertex 1.171572875253811 38.82842712474619 0.0
  endloop
endfacet
facet normal -0.8660254037844388 -0.49999999999999967 0.0
  outer loop
    vertex 0.5358983848622458 2.0 6.8
    vertex 1.17157287525381 1.17157287525381 0.0
    vertex 1.17157287525381 1.17157287525381 6.8
  endloop
endfacet
facet normal -0.7071067811865477 -0.7071067811865475 0.0
  outer loop
    vertex 1.17157287525381 1.17157287525381 0.0
    vertex 0.5358983848622458 2.0 6.8
    vertex 0.5358983848622458 2.0 0.0
  endloop
endfacet
facet normal 0.0 0.0 -1.0
  outer loop
    vertex 0.13629669484372842 37.03527618041009 0.0
    vertex 0.0 3.9999999999999996 0.0
    vertex 0.0 36.0 0.0
  endloop
endfacet
facet normal 0.0 0.0 -1.0
  outer loop
    vertex 0.0 3.9999999999999996 0.0
    vertex 0.13629669484372842 37.03527618041009 0.0
    vertex 0.13629669484372772 2.9647238195899166 0.0
  endloop
endfacet
facet normal 0.0 0.0 -1.0
  outer loop
    vertex 0.13629669484372772 2.9647238195899166 0.0
    vertex 0.13629669484372842 37.03527618041009 0.0
    vertex 0.5358983848622458 2.0 0.0
  endloop
endfacet
facet normal 0.0 0.0 -1.0
  outer loop
    vertex 0.5358983848622458 2.0 0.0
    vertex 0.13629669484372842 37.03527618041009 0.0
    vertex 0.5358983848622466 38.00000000000001 0.0
  endloop
endfacet
facet normal 0.0 0.0 -1.0
  outer loop
    vertex 0.5358983848622458 2.0 0.0
    vertex 0.5358983848622466 38.00000000000001 0.0
    vertex 1.17157287525381 1.17157287525381 0.0
  endloop
endfacet
facet normal 0.0 0.0 -1.0
  outer loop
    vertex 1.17157287525381 1.17157287525381 0.0
    vertex 0.5358983848622466 38.00000000000001 0.0
    vertex 1.171572875253811 38.82842712474619 0.0
  endloop
endfacet
facet normal 0.0 0.0 -1.0
  outer loop
    vertex 1.17157287525381 1.17157287525381 0.0
    vertex 1.171572875253811 38.82842712474619 0.0
    vertex 1.9999999999999998 0.5358983848622458 0.0
  endloop
endfacet
facet normal 0.0 0.0 -1.0
  outer loop
    vertex 1.9999999999999998 0.5358983848622458 0.0
    vertex 1.171572875253811 38.82842712474619 0.0
    vertex 2.000000000000001 39.46410161513775 0.0
  endloop
endfacet
facet normal 0.0 0.0 -1.0
  outer loop
    vertex 1.9999999999999998 0.5358983848622458 0.0
    vertex 2.000000000000001 39.46410161513775 0.0
    vertex 2.964723819589916 0.136296694843727 0.0
  endloop
endfacet
facet normal 0.0 0.0 -1.0
  outer loop
    vertex 2.964723819589916 0.136296694843727 0.0
    vertex 2.000000000000001 39.46410161513775 0.0
    vertex 2.964723819589917 39.86370330515627 0.0
  endloop
endfacet
facet normal 0.0 0.0 -1.0
  outer loop
    vertex 2.964723819589916 0.136296694843727 0.0
    vertex 2.964723819589917 39.86370330515627 0.0
    vertex 3.9999999999999996 0.0 0.0
  endloop
endfacet
facet normal 0.0 0.0 -1.0
  outer loop
    vertex 3.9999999999999996 0.0 0.0
    vertex 2.964723819589917 39.86370330515627 0.0
    vertex 3.9999999999999996 40.0 0.0
  endloop
endfacet
facet normal 0.0 0.0 -1.0
  outer loop
    vertex 3.9999999999999996 0.0 0.0
    vertex 3.9999999999999996 40.0 0.0
    vertex 36.0 40.0 0.0
  endloop
endfacet
facet normal 0.0 0.0 -1.0
  outer loop
    vertex 3.9999999999999996 0.0 0.0
    vertex 36.0 40.0 0.0
    vertex 36.0 0.0 0.0
  endloop
endfacet
facet normal 0.0 0.0 -1.0
  outer loop
    vertex 36.0 0.0 0.0
    vertex 36.0 40.0 0.0
    vertex 37.03527618041009 39.86370330515627 0.0
  endloop
endfacet
facet normal 0.0 0.0 -1.0
  outer loop
    vertex 36.0 0.0 0.0
    vertex 37.03527618041009 39.86370330515627 0.0
    vertex 37.03527618041008 0.13629669484372772 0.0
  endloop
endfacet
facet normal 0.0 0.0 -1.0
  outer loop
    vertex 37.03527618041008 0.13629669484372772 0.0
    vertex 37.03527618041009 39.86370330515627 0.0
    vertex 38.0 0.5358983848622452 0.0
  endloop
endfacet
facet normal 0.0 0.0 -1.0
  outer loop
    vertex 38.0 0.5358983848622452 0.0
    vertex 37.03527618041009 39.86370330515627 0.0
    vertex 38.00000000000001 39.46410161513775 0.0
  endloop
endfacet
facet normal 0.0 0.0 -1.0
  outer loop
    vertex 38.0 0.5358983848622452 0.0
    vertex 38.00000000000001 39.46410161513775 0.0
    vertex 38.828427124746185 1.1715728752538104 0.0
  endloop
endfacet
facet normal 0.0 0.0 -1.0
  outer loop
    vertex 38.828427124746185 1.1715728752538104 0.0
    vertex 38.00000000000001 39.46410161513775 0.0
    vertex 38.82842712474619 38.828427124746185 0.0
  endloop
endfacet
facet normal 0.0 0.0 -1.0
  outer loop
    vertex 38.828427124746185 1.1715728752538104 0.0
    vertex 38.82842712474619 38.828427124746185 0.0
    vertex 39.46410161513775 1.999999999999999 0.0
  endloop
endfacet
facet normal 0.0 0.0 -1.0
  outer loop
    vertex 39.46410161513775 1.999999999999999 0.0
    vertex 38.82842712474619 38.828427124746185 0.0
    vertex 39.46410161513775 38.0 0.0
  endloop
endfacet
facet normal 0.0 0.0 -1.0
  outer loop
    vertex 39.46410161513775 1.999999999999999 0.0
    vertex 39.46410161513775 38.0 0.0
    vertex 39.86370330515627 37.03527618041008 0.0
  endloop
endfacet
facet normal 0.0 0.0 -1.0
  outer loop
    vertex 39.46410161513775 1.999999999999999 0.0
    vertex 39.86370330515627 37.03527618041008 0.0
    vertex 39.86370330515627 2.9647238195899144 0.0
  endloop
endfacet
facet normal 0.0 0.0 -1.0
  outer loop
    vertex 39.86370330515627 2.9647238195899144 0.0
    vertex 39.86370330515627 37.03527618041008 0.0
    vertex 40.0 36.0 0.0
  endloop
endfacet
facet normal 0.0 0.0 -1.0
  outer loop
    vertex 39.86370330515627 2.9647238195899144 0.0
    vertex 40.0 36.0 0.0
    vertex 40.0 3.9999999999999996 0.0
  endloop
endfacet
facet normal 1.0 -0.0 -0.0
  outer loop
    vertex 40.0 36.0 0.0
    vertex 40.0 3.9999999999999996 6.8
    vertex 40.0 3.9999999999999996 0.0
  endloop
endfacet
facet normal 1.0 -0.0 -0.0
  outer loop
    vertex 40.0 3.9999999999999996 6.8
    vertex 40.0 36.0 0.0
    vertex 40.0 15.999999999999998 6.8
  endloop
endfacet
facet normal 1.0 -0.0 -0.0
  outer loop
    vertex 40.0 15.999999999999998 6.8
    vertex 40.0 36.0 0.0
    vertex 40.0 15.999999999999998 10.8
  endloop
endfacet
facet normal 1.0 -0.0 -0.0
  outer loop
    vertex 40.0 15.999999999999998 10.8
    vertex 40.0 36.0 0.0
    vertex 40.0 24.0 6.8
  endloop
endfacet
facet normal 1.0 -0.0 -0.0
  outer loop
    vertex 40.0 24.0 6.8
    vertex 40.0 36.0 0.0
    vertex 40.0 36.0 6.8
  endloop
endfacet
facet normal 1.0 -0.0 -0.0
  outer loop
    vertex 40.0 24.0 10.8
    vertex 40.0 15.999999999999998 10.8
    vertex 40.0 24.0 6.8
  endloop
endfacet
facet normal 0.9914448613738105 -0.13052619222005143 0.0
  outer loop
    vertex 40.0 3.9999999999999996 0.0
    vertex 39.86370330515627 2.9647238195899144 6.8
    vertex 39.86370330515627 2.9647238195899144 0.0
  endloop
endfacet
facet normal 0.9659258262890681 -0.2588190451025216 0.0
  outer loop
    vertex 39.86370330515627 2.9647238195899144 6.8
    vertex 40.0 3.9999999999999996 0.0
    vertex 40.0 3.9999999999999996 6.8
  endloop
endfacet
facet normal 0.9659258262890681 -0.2588190451025216 0.0
  outer loop
    vertex 39.86370330515627 2.9647238195899144 0.0
    vertex 39.46410161513775 1.999999999999999 6.8
    vertex 39.46410161513775 1.999999999999999 0.0
  endloop
endfacet
facet normal 0.8660254037844377 -0.5000000000000016 0.0
  outer loop
    vertex 39.46410161513775 1.999999999999999 6.8
    vertex 39.86370330515627 2.9647238195899144 0.0
    vertex 39.86370330515627 2.9647238195899144 6.8
  endloop
endfacet
facet normal 0.8660254037844377 -0.5000000000000016 0.0
  outer loop
    vertex 39.46410161513775 1.999999999999999 0.0
    vertex 38.828427124746185 1.1715728752538104 6.8
    vertex 38.828427124746185 1.1715728752538104 0.0
  endloop
endfacet
facet normal 0.7071067811865474 -0.7071067811865478 0.0
  outer loop
    vertex 38.828427124746185 1.1715728752538104 6.8
    vertex 39.46410161513775 1.999999999999999 0.0
    vertex 39.46410161513775 1.999999999999999 6.8
  endloop
endfacet
facet normal 0.7071067811865474 -0.7071067811865478 0.0
  outer loop
    vertex 38.828427124746185 1.1715728752538104 6.8
    vertex 38.0 0.5358983848622452 0.0
    vertex 38.828427124746185 1.1715728752538104 0.0
  endloop
endfacet
facet normal 0.5 -0.8660254037844387 0.0
  outer loop
    vertex 38.0 0.5358983848622452 0.0
    vertex 38.828427124746185 1.1715728752538104 6.8
    vertex 38.0 0.5358983848622452 6.8
  endloop
endfacet
facet normal 0.5 -0.8660254037844387 0.0
  outer loop
    vertex 38.0 0.5358983848622452 6.8
    vertex 37.03527618041008 0.13629669484372772 0.0
    vertex 38.0 0.5358983848622452 0.0
  endloop
endfacet
facet normal 0.25881904510252085 -0.9659258262890682 0.0
  outer loop
    vertex 37.03527618041008 0.13629669484372772 0.0
    vertex 38.0 0.5358983848622452 6.8
    vertex 37.03527618041008 0.13629669484372772 6.8
  endloop
endfacet
facet normal -0.13052619222005166 -0.9914448613738104 -0.0
  outer loop
    vertex 3.9999999999999996 0.0 6.8
    vertex 2.964723819589916 0.136296694843727 0.0
    vertex 3.9999999999999996 0.0 0.0
  endloop
endfacet
facet normal -0.258819045102521 -0.9659258262890682 0.0
  outer loop
    vertex 2.964723819589916 0.136296694843727 0.0
    vertex 3.9999999999999996 0.0 6.8
    vertex 2.964723819589916 0.136296694843727 6.8
  endloop
endfacet
facet normal -0.258819045102521 -0.9659258262890682 0.0
  outer loop
    vertex 2.964723819589916 0.136296694843727 6.8
    vertex 1.9999999999999998 0.5358983848622458 0.0
    vertex 2.964723819589916 0.136296694843727 0.0
  endloop
endfacet
facet normal -0.5000000000000001 -0.8660254037844386 0.0
  outer loop
    vertex 1.9999999999999998 0.5358983848622458 0.0
    vertex 2.964723819589916 0.136296694843727 6.8
    vertex 1.9999999999999998 0.5358983848622458 6.8
  endloop
endfacet
facet normal 0.25881904510252085 -0.9659258262890682 0.0
  outer loop
    vertex 37.03527618041008 0.13629669484372772 6.8
    vertex 36.0 0.0 0.0
    vertex 37.03527618041008 0.13629669484372772 0.0
  endloop
endfacet
facet normal 0.13052619222005282 -0.9914448613738104 0.0
  outer loop
    vertex 36.0 0.0 0.0
    vertex 37.03527618041008 0.13629669484372772 6.8
    vertex 36.0 0.0 6.8
  endloop
endfacet
facet normal 0.0 -1.0 0.0
  outer loop
    vertex 24.0 0.0 10.800000000000006
    vertex 16.0 0.0 6.8
    vertex 24.0 0.0 6.8
  endloop
endfacet
facet normal 0.0 -1.0 0.0
  outer loop
    vertex 16.0 0.0 6.8
    vertex 24.0 0.0 10.800000000000006
    vertex 16.0 0.0 10.800000000000006
  endloop
endfacet
facet normal 0.0 -1.0 0.0
  outer loop
    vertex 36.0 0.0 6.8
    vertex 3.9999999999999996 0.0 0.0
    vertex 36.0 0.0 0.0
  endloop
endfacet
facet normal 0.0 -1.0 0.0
  outer loop
    vertex 3.9999999999999996 0.0 0.0
    vertex 36.0 0.0 6.8
    vertex 3.9999999999999996 0.0 6.8
  endloop
endfacet
facet normal 0.0 -1.0 0.0
  outer loop
    vertex 3.9999999999999996 0.0 6.8
    vertex 36.0 0.0 6.8
    vertex 24.0 0.0 6.8
  endloop
endfacet
facet normal 0.0 -1.0 0.0
  outer loop
    vertex 3.9999999999999996 0.0 6.8
    vertex 24.0 0.0 6.8
    vertex 16.0 0.0 6.8
  endloop
endfacet
facet normal -0.9659258262890682 -0.258819045102521 0.0
  outer loop
    vertex 0.13629669484372772 2.9647238195899166 6.8
    vertex 0.5358983848622458 2.0 0.0
    vertex 0.5358983848622458 2.0 6.8
  endloop
endfacet
facet normal -0.8660254037844388 -0.49999999999999967 0.0
  outer loop
    vertex 0.5358983848622458 2.0 0.0
    vertex 0.13629669484372772 2.9647238195899166 6.8
    vertex 0.13629669484372772 2.9647238195899166 0.0
  endloop
endfacet
facet normal -0.5000000000000001 -0.8660254037844386 0.0
  outer loop
    vertex 1.9999999999999998 0.5358983848622458 6.8
    vertex 1.17157287525381 1.17157287525381 0.0
    vertex 1.9999999999999998 0.5358983848622458 0.0
  endloop
endfacet
facet normal -0.7071067811865477 -0.7071067811865475 0.0
  outer loop
    vertex 1.17157287525381 1.17157287525381 0.0
    vertex 1.9999999999999998 0.5358983848622458 6.8
    vertex 1.17157287525381 1.17157287525381 6.8
  endloop
endfacet
facet normal -0.7071067811865462 0.707106781186549 0.0
  outer loop
    vertex 1.171572875253811 38.82842712474619 6.8
    vertex 2.000000000000001 39.46410161513775 0.0
    vertex 1.171572875253811 38.82842712474619 0.0
  endloop
endfacet
facet normal -0.4999999999999992 0.8660254037844392 0.0
  outer loop
    vertex 2.000000000000001 39.46410161513775 0.0
    vertex 1.171572875253811 38.82842712474619 6.8
    vertex 2.000000000000001 39.46410161513775 6.8
  endloop
endfacet
facet normal -0.4999999999999992 0.8660254037844392 0.0
  outer loop
    vertex 2.000000000000001 39.46410161513775 6.8
    vertex 2.964723819589917 39.86370330515627 0.0
    vertex 2.000000000000001 39.46410161513775 0.0
  endloop
endfacet
facet normal -0.25881904510252174 0.9659258262890681 0.0
  outer loop
    vertex 2.964723819589917 39.86370330515627 0.0
    vertex 2.000000000000001 39.46410161513775 6.8
    vertex 2.964723819589917 39.86370330515627 6.8
  endloop
endfacet
facet normal -0.25881904510252174 0.9659258262890681 0.0
  outer loop
    vertex 2.964723819589917 39.86370330515627 6.8
    vertex 3.9999999999999996 40.0 0.0
    vertex 2.964723819589917 39.86370330515627 0.0
  endloop
endfacet
facet normal -0.1305261922200518 0.9914448613738104 0.0
  outer loop
    vertex 3.9999999999999996 40.0 0.0
    vertex 2.964723819589917 39.86370330515627 6.8
    vertex 3.9999999999999996 40.0 6.8
  endloop
endfacet
facet normal -0.0 1.0 -0.0
  outer loop
    vertex 16.0 40.0 10.80000000000002
    vertex 24.0 40.0 6.8
    vertex 16.0 40.0 6.8
  endloop
endfacet
facet normal -0.0 1.0 -0.0
  outer loop
    vertex 24.0 40.0 6.8
    vertex 16.0 40.0 10.80000000000002
    vertex 24.0 40.0 10.80000000000002
  endloop
endfacet
facet normal -0.0 1.0 -0.0
  outer loop
    vertex 3.9999999999999996 40.0 6.8
    vertex 36.0 40.0 0.0
    vertex 3.9999999999999996 40.0 0.0
  endloop
endfacet
facet normal -0.0 1.0 -0.0
  outer loop
    vertex 36.0 40.0 0.0
    vertex 3.9999999999999996 40.0 6.8
    vertex 36.0 40.0 6.8
  endloop
endfacet
facet normal -0.0 1.0 -0.0
  outer loop
    vertex 36.0 40.0 6.8
    vertex 3.9999999999999996 40.0 6.8
    vertex 16.0 40.0 6.8
  endloop
endfacet
facet normal -0.0 1.0 -0.0
  outer loop
    vertex 36.0 40.0 6.8
    vertex 16.0 40.0 6.8
    vertex 24.0 40.0 6.8
  endloop
endfacet
facet normal 0.13052619222005143 0.9914448613738105 0.0
  outer loop
    vertex 36.0 40.0 6.8
    vertex 37.03527618041009 39.86370330515627 0.0
    vertex 36.0 40.0 0.0
  endloop
endfacet
facet normal 0.25881904510252146 0.9659258262890681 0.0
  outer loop
    vertex 37.03527618041009 39.86370330515627 0.0
    vertex 36.0 40.0 6.8
    vertex 37.03527618041009 39.86370330515627 6.8
  endloop
endfacet
facet normal 0.25881904510252146 0.9659258262890681 0.0
  outer loop
    vertex 37.03527618041009 39.86370330515627 6.8
    vertex 38.00000000000001 39.46410161513775 0.0
    vertex 37.03527618041009 39.86370330515627 0.0
  endloop
endfacet
facet normal 0.5000000000000011 0.866025403784438 0.0
  outer loop
    vertex 38.00000000000001 39.46410161513775 0.0
    vertex 37.03527618041009 39.86370330515627 6.8
    vertex 38.00000000000001 39.46410161513775 6.8
  endloop
endfacet
facet normal 0.5000000000000011 0.866025403784438 0.0
  outer loop
    vertex 38.00000000000001 39.46410161513775 6.8
    vertex 38.82842712474619 38.828427124746185 0.0
    vertex 38.00000000000001 39.46410161513775 0.0
  endloop
endfacet
facet normal 0.707106781186549 0.707106781186546 0.0
  outer loop
    vertex 38.82842712474619 38.828427124746185 0.0
    vertex 38.00000000000001 39.46410161513775 6.8
    vertex 38.82842712474619 38.828427124746185 6.8
  endloop
endfacet
facet normal 0.707106781186549 0.707106781186546 0.0
  outer loop
    vertex 38.82842712474619 38.828427124746185 0.0
    vertex 39.46410161513775 38.0 6.8
    vertex 39.46410161513775 38.0 0.0
  endloop
endfacet
facet normal 0.8660254037844392 0.4999999999999992 0.0
  outer loop
    vertex 39.46410161513775 38.0 6.8
    vertex 38.82842712474619 38.828427124746185 0.0
    vertex 38.82842712474619 38.828427124746185 6.8
  endloop
endfacet
facet normal 0.8660254037844392 0.4999999999999992 0.0
  outer loop
    vertex 39.46410161513775 38.0 0.0
    vertex 39.86370330515627 37.03527618041008 6.8
    vertex 39.86370330515627 37.03527618041008 0.0
  endloop
endfacet
facet normal 0.9659258262890681 0.2588190451025219 0.0
  outer loop
    vertex 39.86370330515627 37.03527618041008 6.8
    vertex 39.46410161513775 38.0 0.0
    vertex 39.46410161513775 38.0 6.8
  endloop
endfacet
facet normal 0.9659258262890681 0.2588190451025219 0.0
  outer loop
    vertex 39.86370330515627 37.03527618041008 0.0
    vertex 40.0 36.0 6.8
    vertex 40.0 36.0 0.0
  endloop
endfacet
facet normal 0.9914448613738104 0.13052619222005216 0.0
  outer loop
    vertex 40.0 36.0 6.8
    vertex 39.86370330515627 37.03527618041008 0.0
    vertex 39.86370330515627 37.03527618041008 6.8
  endloop
endfacet
facet normal -0.0 -0.0 1.0
  outer loop
    vertex 14.20444504226559 18.447085729384874 0.8000000000000002
    vertex 14.20444504226559 21.552914270615123 0.8000000000000002
    vertex 14.0 19.999999999999996 0.8000000000000002
  endloop
endfacet
facet normal -0.0 -0.0 1.0
  outer loop
    vertex 14.20444504226559 21.552914270615123 0.8000000000000002
    vertex 14.20444504226559 18.447085729384874 0.8000000000000002
    vertex 14.803847577293368 17.0 0.8000000000000002
  endloop
endfacet
facet normal -0.0 -0.0 1.0
  outer loop
    vertex 14.20444504226559 21.552914270615123 0.8000000000000002
    vertex 14.803847577293368 17.0 0.8000000000000002
    vertex 14.803847577293368 22.999999999999996 0.8000000000000002
  endloop
endfacet
facet normal -0.0 -0.0 1.0
  outer loop
    vertex 14.803847577293368 22.999999999999996 0.8000000000000002
    vertex 14.803847577293368 17.0 0.8000000000000002
    vertex 15.757359312880716 15.757359312880713 0.8000000000000002
  endloop
endfacet
facet normal -0.0 -0.0 1.0
  outer loop
    vertex 14.803847577293368 22.999999999999996 0.8000000000000002
    vertex 15.757359312880716 15.757359312880713 0.8000000000000002
    vertex 15.757359312880713 24.242640687119284 0.8000000000000002
  endloop
endfacet
facet normal -0.0 -0.0 1.0
  outer loop
    vertex 15.757359312880713 24.242640687119284 0.8000000000000002
    vertex 15.757359312880716 15.757359312880713 0.8000000000000002
    vertex 17.0 25.196152422706632 0.8000000000000002
  endloop
endfacet
facet normal -0.0 -0.0 1.0
  outer loop
    vertex 17.0 25.196152422706632 0.8000000000000002
    vertex 15.757359312880716 15.757359312880713 0.8000000000000002
    vertex 17.0 14.803847577293368 0.8000000000000002
  endloop
endfacet
facet normal -0.0 -0.0 1.0
  outer loop
    vertex 17.0 25.196152422706632 0.8000000000000002
    vertex 17.0 14.803847577293368 0.8000000000000002
    vertex 18.447085729384874 14.20444504226559 0.8000000000000002
  endloop
endfacet
facet normal -0.0 -0.0 1.0
  outer loop
    vertex 17.0 25.196152422706632 0.8000000000000002
    vertex 18.447085729384874 14.20444504226559 0.8000000000000002
    vertex 18.447085729384877 25.795554957734414 0.8000000000000002
  endloop
endfacet
facet normal -0.0 -0.0 1.0
  outer loop
    vertex 18.447085729384877 25.795554957734414 0.8000000000000002
    vertex 18.447085729384874 14.20444504226559 0.8000000000000002
    vertex 20.00000000000001 14.0 0.8000000000000002
  endloop
endfacet
facet normal -0.0 -0.0 1.0
  outer loop
    vertex 18.447085729384877 25.795554957734414 0.8000000000000002
    vertex 20.00000000000001 14.0 0.8000000000000002
    vertex 20.000000000000004 25.999999999999996 0.8000000000000002
  endloop
endfacet
facet normal -0.0 -0.0 1.0
  outer loop
    vertex 20.000000000000004 25.999999999999996 0.8000000000000002
    vertex 20.00000000000001 14.0 0.8000000000000002
    vertex 21.55291427061513 25.795554957734407 0.8000000000000002
  endloop
endfacet
facet normal -0.0 -0.0 1.0
  outer loop
    vertex 21.55291427061513 25.795554957734407 0.8000000000000002
    vertex 20.00000000000001 14.0 0.8000000000000002
    vertex 21.552914270615133 14.204445042265593 0.8000000000000002
  endloop
endfacet
facet normal -0.0 -0.0 1.0
  outer loop
    vertex 21.55291427061513 25.795554957734407 0.8000000000000002
    vertex 21.552914270615133 14.204445042265593 0.8000000000000002
    vertex 23.000000000000004 25.196152422706632 0.8000000000000002
  endloop
endfacet
facet normal -0.0 -0.0 1.0
  outer loop
    vertex 23.000000000000004 25.196152422706632 0.8000000000000002
    vertex 21.552914270615133 14.204445042265593 0.8000000000000002
    vertex 23.000000000000007 14.803847577293373 0.8000000000000002
  endloop
endfacet
facet normal -0.0 -0.0 1.0
  outer loop
    vertex 23.000000000000004 25.196152422706632 0.8000000000000002
    vertex 23.000000000000007 14.803847577293373 0.8000000000000002
    vertex 24.242640687119287 24.24264068711928 0.8000000000000002
  endloop
endfacet
facet normal -0.0 -0.0 1.0
  outer loop
    vertex 24.242640687119287 24.24264068711928 0.8000000000000002
    vertex 23.000000000000007 14.803847577293373 0.8000000000000002
    vertex 24.24264068711929 15.757359312880718 0.8000000000000002
  endloop
endfacet
facet normal -0.0 -0.0 1.0
  outer loop
    vertex 24.242640687119287 24.24264068711928 0.8000000000000002
    vertex 24.24264068711929 15.757359312880718 0.8000000000000002
    vertex 25.196152422706632 22.999999999999996 0.8000000000000002
  endloop
endfacet
facet normal -0.0 -0.0 1.0
  outer loop
    vertex 25.196152422706632 22.999999999999996 0.8000000000000002
    vertex 24.24264068711929 15.757359312880718 0.8000000000000002
    vertex 25.196152422706636 17.000000000000004 0.8000000000000002
  endloop
endfacet
facet normal -0.0 -0.0 1.0
  outer loop
    vertex 25.196152422706632 22.999999999999996 0.8000000000000002
    vertex 25.196152422706636 17.000000000000004 0.8000000000000002
    vertex 25.795554957734414 21.552914270615123 0.8000000000000002
  endloop
endfacet
facet normal -0.0 -0.0 1.0
  outer loop
    vertex 25.795554957734414 21.552914270615123 0.8000000000000002
    vertex 25.196152422706636 17.000000000000004 0.8000000000000002
    vertex 25.795554957734414 18.447085729384877 0.8000000000000002
  endloop
endfacet
facet normal -0.0 -0.0 1.0
  outer loop
    vertex 25.795554957734414 21.552914270615123 0.8000000000000002
    vertex 25.795554957734414 18.447085729384877 0.8000000000000002
    vertex 25.999999999999996 20.0 0.8000000000000002
  endloop
endfacet
facet normal -1.318844264555742e-15 1.0 1.329002841437334e-16
  outer loop
    vertex 20.000000000000007 14.0 6.8
    vertex 21.552914270615133 14.204445042265593 0.8000000000000002
    vertex 20.00000000000001 14.0 0.8000000000000002
  endloop
endfacet
facet normal -0.2588190451025228 0.9659258262890679 1.332044621203899e-16
  outer loop
    vertex 21.552914270615133 14.204445042265593 0.8000000000000002
    vertex 20.000000000000007 14.0 6.8
    vertex 21.552914270615144 14.204445042265593 6.8
  endloop
endfacet
facet normal 0.25881904510252 0.9659258262890684 1.5845128275885293e-16
  outer loop
    vertex 18.44708572938488 14.204445042265588 6.8
    vertex 20.00000000000001 14.0 0.8000000000000002
    vertex 18.447085729384874 14.20444504226559 0.8000000000000002
  endloop
endfacet
facet normal -1.4792442426773864e-15 1.0 1.329002841437333e-16
  outer loop
    vertex 20.00000000000001 14.0 0.8000000000000002
    vertex 18.44708572938488 14.204445042265588 6.8
    vertex 20.000000000000007 14.0 6.8
  endloop
endfacet
facet normal 0.4999999999999995 0.866025403784439 1.583760304906194e-17
  outer loop
    vertex 17.000000000000007 14.803847577293364 6.8
    vertex 18.447085729384874 14.20444504226559 0.8000000000000002
    vertex 17.0 14.803847577293368 0.8000000000000002
  endloop
endfacet
facet normal 0.2588190451025202 0.9659258262890685 1.5845128275885286e-16
  outer loop
    vertex 18.447085729384874 14.20444504226559 0.8000000000000002
    vertex 17.000000000000007 14.803847577293364 6.8
    vertex 18.44708572938488 14.204445042265588 6.8
  endloop
endfacet
facet normal 0.7071067811865469 0.707106781186548 3.1095911365837386e-18
  outer loop
    vertex 15.757359312880718 15.75735931288071 6.8
    vertex 17.0 14.803847577293368 0.8000000000000002
    vertex 15.757359312880716 15.757359312880713 0.8000000000000002
  endloop
endfacet
facet normal 0.49999999999999967 0.8660254037844389 1.5837603049061848e-17
  outer loop
    vertex 17.0 14.803847577293368 0.8000000000000002
    vertex 15.757359312880718 15.75735931288071 6.8
    vertex 17.000000000000007 14.803847577293364 6.8
  endloop
endfacet
facet normal 0.707106781186547 0.707106781186548 3.1095911365837867e-18
  outer loop
    vertex 15.757359312880716 15.757359312880713 0.8000000000000002
    vertex 14.80384757729337 16.999999999999993 6.8
    vertex 15.757359312880718 15.75735931288071 6.8
  endloop
endfacet
facet normal 0.8660254037844383 0.5000000000000007 1.4421685103534533e-16
  outer loop
    vertex 14.80384757729337 16.999999999999993 6.8
    vertex 15.757359312880716 15.757359312880713 0.8000000000000002
    vertex 14.803847577293368 17.0 0.8000000000000002
  endloop
endfacet
facet normal 0.8660254037844383 0.5000000000000006 1.4421685103534545e-16
  outer loop
    vertex 14.803847577293368 17.0 0.8000000000000002
    vertex 14.20444504226559 18.447085729384867 6.8
    vertex 14.80384757729337 16.999999999999993 6.8
  endloop
endfacet
facet normal 0.9659258262890679 0.2588190451025219 3.108501524060468e-16
  outer loop
    vertex 14.20444504226559 18.447085729384867 6.8
    vertex 14.803847577293368 17.0 0.8000000000000002
    vertex 14.20444504226559 18.447085729384874 0.8000000000000002
  endloop
endfacet
facet normal 0.9659258262890681 0.2588190451025218 3.10850152406047e-16
  outer loop
    vertex 14.20444504226559 18.447085729384874 0.8000000000000002
    vertex 13.999999999999996 19.999999999999993 6.8
    vertex 14.20444504226559 18.447085729384867 6.8
  endloop
endfacet
facet normal 1.0 5.70311033321402e-16 3.680045861039852e-16
  outer loop
    vertex 13.999999999999996 19.999999999999993 6.8
    vertex 14.20444504226559 18.447085729384874 0.8000000000000002
    vertex 14.0 19.999999999999996 0.8000000000000002
  endloop
endfacet
facet normal 1.0 4.0991105519975767e-16 3.6800458610398513e-16
  outer loop
    vertex 14.0 19.999999999999996 0.8000000000000002
    vertex 14.204445042265588 21.552914270615116 6.8
    vertex 13.999999999999996 19.999999999999993 6.8
  endloop
endfacet
facet normal 0.9659258262890684 -0.2588190451025206 2.5909774622547374e-16
  outer loop
    vertex 14.204445042265588 21.552914270615116 6.8
    vertex 14.0 19.999999999999996 0.8000000000000002
    vertex 14.20444504226559 21.552914270615123 0.8000000000000002
  endloop
endfacet
facet normal 0.9659258262890684 -0.25881904510252074 2.5909774622547365e-16
  outer loop
    vertex 14.20444504226559 21.552914270615123 0.8000000000000002
    vertex 14.803847577293364 22.999999999999993 6.8
    vertex 14.204445042265588 21.552914270615116 6.8
  endloop
endfacet
facet normal 0.8660254037844393 -0.49999999999999906 1.324182486491868e-16
  outer loop
    vertex 14.803847577293364 22.999999999999993 6.8
    vertex 14.20444504226559 21.552914270615123 0.8000000000000002
    vertex 14.803847577293368 22.999999999999996 0.8000000000000002
  endloop
endfacet
facet normal 0.8660254037844392 -0.49999999999999917 1.3241824864918674e-16
  outer loop
    vertex 14.803847577293368 22.999999999999996 0.8000000000000002
    vertex 15.75735931288071 24.24264068711928 6.8
    vertex 14.803847577293364 22.999999999999993 6.8
  endloop
endfacet
facet normal 0.7071067811865482 -0.707106781186547 3.1095911365836928e-18
  outer loop
    vertex 15.75735931288071 24.24264068711928 6.8
    vertex 14.803847577293368 22.999999999999996 0.8000000000000002
    vertex 15.757359312880713 24.242640687119284 0.8000000000000002
  endloop
endfacet
facet normal 0.5 -0.8660254037844386 -2.379445247737048e-16
  outer loop
    vertex 16.999999999999996 25.19615242270663 6.8
    vertex 15.757359312880713 24.242640687119284 0.8000000000000002
    vertex 17.0 25.196152422706632 0.8000000000000002
  endloop
endfacet
facet normal 0.707106781186548 -0.707106781186547 3.1095911365836126e-18
  outer loop
    vertex 15.757359312880713 24.242640687119284 0.8000000000000002
    vertex 16.999999999999996 25.19615242270663 6.8
    vertex 15.75735931288071 24.24264068711928 6.8
  endloop
endfacet
facet normal 0.25881904510252113 -0.9659258262890682 -1.326034597775379e-16
  outer loop
    vertex 18.44708572938487 25.795554957734407 6.8
    vertex 17.0 25.196152422706632 0.8000000000000002
    vertex 18.447085729384877 25.795554957734414 0.8000000000000002
  endloop
endfacet
facet normal 0.5 -0.8660254037844386 -2.379445247737049e-16
  outer loop
    vertex 17.0 25.196152422706632 0.8000000000000002
    vertex 18.44708572938487 25.795554957734407 6.8
    vertex 16.999999999999996 25.19615242270663 6.8
  endloop
endfacet
facet normal 6.237776926952835e-17 -1.0 4.692370985405016e-16
  outer loop
    vertex 19.999999999999996 26.000000000000004 6.8
    vertex 18.447085729384877 25.795554957734414 0.8000000000000002
    vertex 20.000000000000004 25.999999999999996 0.8000000000000002
  endloop
endfacet
facet normal 0.25881904510252096 -0.9659258262890682 -1.3260345977753752e-16
  outer loop
    vertex 18.447085729384877 25.795554957734414 0.8000000000000002
    vertex 19.999999999999996 26.000000000000004 6.8
    vertex 18.44708572938487 25.795554957734407 6.8
  endloop
endfacet
facet normal -0.25881904510252063 -0.9659258262890682 4.463956436895409e-16
  outer loop
    vertex 21.552914270615123 25.795554957734414 6.8
    vertex 20.000000000000004 25.999999999999996 0.8000000000000002
    vertex 21.55291427061513 25.795554957734407 0.8000000000000002
  endloop
endfacet
facet normal -9.802220885211595e-17 -1.0 4.69237098540502e-16
  outer loop
    vertex 20.000000000000004 25.999999999999996 0.8000000000000002
    vertex 21.552914270615123 25.795554957734414 6.8
    vertex 19.999999999999996 26.000000000000004 6.8
  endloop
endfacet
facet normal -0.5000000000000002 -0.8660254037844384 -5.755519075903684e-17
  outer loop
    vertex 22.999999999999996 25.196152422706632 6.8
    vertex 21.55291427061513 25.795554957734407 0.8000000000000002
    vertex 23.000000000000004 25.196152422706632 0.8000000000000002
  endloop
endfacet
facet normal -0.25881904510252085 -0.9659258262890683 4.463956436895404e-16
  outer loop
    vertex 21.55291427061513 25.795554957734407 0.8000000000000002
    vertex 22.999999999999996 25.196152422706632 6.8
    vertex 21.552914270615123 25.795554957734414 6.8
  endloop
endfacet
facet normal -0.7071067811865475 -0.7071067811865475 -2.1705538077082017e-17
  outer loop
    vertex 24.24264068711928 24.242640687119287 6.8
    vertex 23.000000000000004 25.196152422706632 0.8000000000000002
    vertex 24.242640687119287 24.24264068711928 0.8000000000000002
  endloop
endfacet
facet normal -0.5000000000000004 -0.8660254037844385 -5.755519075903697e-17
  outer loop
    vertex 23.000000000000004 25.196152422706632 0.8000000000000002
    vertex 24.24264068711928 24.242640687119287 6.8
    vertex 22.999999999999996 25.196152422706632 6.8
  endloop
endfacet
facet normal -0.8660254037844382 -0.5000000000000008 1.6900035111915916e-17
  outer loop
    vertex 25.19615242270663 23.000000000000007 6.8
    vertex 24.242640687119287 24.24264068711928 0.8000000000000002
    vertex 25.196152422706632 22.999999999999996 0.8000000000000002
  endloop
endfacet
facet normal -0.7071067811865477 -0.7071067811865475 -2.1705538077081737e-17
  outer loop
    vertex 24.242640687119287 24.24264068711928 0.8000000000000002
    vertex 25.19615242270663 23.000000000000007 6.8
    vertex 24.24264068711928 24.242640687119287 6.8
  endloop
endfacet
facet normal -0.9659258262890681 -0.25881904510252146 3.4588103608136846e-17
  outer loop
    vertex 25.795554957734407 21.55291427061513 6.8
    vertex 25.196152422706632 22.999999999999996 0.8000000000000002
    vertex 25.795554957734414 21.552914270615123 0.8000000000000002
  endloop
endfacet
facet normal -0.8660254037844383 -0.5000000000000006 1.6900035111915667e-17
  outer loop
    vertex 25.196152422706632 22.999999999999996 0.8000000000000002
    vertex 25.795554957734407 21.55291427061513 6.8
    vertex 25.19615242270663 23.000000000000007 6.8
  endloop
endfacet
facet normal -1.0 -1.0158665281037471e-15 2.3413279658025165e-16
  outer loop
    vertex 26.000000000000004 20.000000000000007 6.8
    vertex 25.795554957734414 21.552914270615123 0.8000000000000002
    vertex 25.999999999999996 20.0 0.8000000000000002
  endloop
endfacet
facet normal -0.9659258262890682 -0.2588190451025212 3.4588103608137154e-17
  outer loop
    vertex 25.795554957734414 21.552914270615123 0.8000000000000002
    vertex 26.000000000000004 20.000000000000007 6.8
    vertex 25.795554957734407 21.55291427061513 6.8
  endloop
endfacet
facet normal -0.9659258262890688 0.2588190451025193 2.696075856126234e-17
  outer loop
    vertex 25.795554957734414 18.447085729384884 6.8
    vertex 25.999999999999996 20.0 0.8000000000000002
    vertex 25.795554957734414 18.447085729384877 0.8000000000000002
  endloop
endfacet
facet normal -1.0 -7.752665609212805e-16 2.341327965802517e-16
  outer loop
    vertex 25.999999999999996 20.0 0.8000000000000002
    vertex 25.795554957734414 18.447085729384884 6.8
    vertex 26.000000000000004 20.000000000000007 6.8
  endloop
endfacet
facet normal -0.8660254037844394 0.49999999999999883 -1.1790177350235448e-16
  outer loop
    vertex 25.19615242270664 17.000000000000007 6.8
    vertex 25.795554957734414 18.447085729384877 0.8000000000000002
    vertex 25.196152422706636 17.000000000000004 0.8000000000000002
  endloop
endfacet
facet normal -0.9659258262890685 0.2588190451025195 2.696075856126191e-17
  outer loop
    vertex 25.795554957734414 18.447085729384877 0.8000000000000002
    vertex 25.19615242270664 17.000000000000007 6.8
    vertex 25.795554957734414 18.447085729384884 6.8
  endloop
endfacet
facet normal -0.7071067811865486 0.7071067811865466 1.3370821143573234e-30
  outer loop
    vertex 24.242640687119295 15.757359312880723 6.8
    vertex 25.196152422706636 17.000000000000004 0.8000000000000002
    vertex 24.24264068711929 15.757359312880718 0.8000000000000002
  endloop
endfacet
facet normal -0.8660254037844393 0.49999999999999917 -1.179017735023543e-16
  outer loop
    vertex 25.196152422706636 17.000000000000004 0.8000000000000002
    vertex 24.242640687119295 15.757359312880723 6.8
    vertex 25.19615242270664 17.000000000000007 6.8
  endloop
endfacet
facet normal -0.5000000000000018 0.8660254037844376 1.2121231960936673e-16
  outer loop
    vertex 23.000000000000014 14.803847577293377 6.8
    vertex 24.24264068711929 15.757359312880718 0.8000000000000002
    vertex 23.000000000000007 14.803847577293373 0.8000000000000002
  endloop
endfacet
facet normal -0.7071067811865482 0.7071067811865468 1.3484594316456024e-30
  outer loop
    vertex 24.24264068711929 15.757359312880718 0.8000000000000002
    vertex 23.000000000000014 14.803847577293377 6.8
    vertex 24.242640687119295 15.757359312880723 6.8
  endloop
endfacet
facet normal -0.2588190451025229 0.9659258262890676 1.3320446212039006e-16
  outer loop
    vertex 21.552914270615144 14.204445042265593 6.8
    vertex 23.000000000000007 14.803847577293373 0.8000000000000002
    vertex 21.552914270615133 14.204445042265593 0.8000000000000002
  endloop
endfacet
facet normal -0.5000000000000017 0.8660254037844376 1.2121231960936688e-16
  outer loop
    vertex 23.000000000000007 14.803847577293373 0.8000000000000002
    vertex 21.552914270615144 14.204445042265593 6.8
    vertex 23.000000000000014 14.803847577293377 6.8
  endloop
endfacet
facet normal 4.223913998454268e-32 -5.471888588906669e-32 1.0
  outer loop
    vertex 10.000000000000002 7.999999999999999 6.8
    vertex 14.20444504226559 18.447085729384867 6.8
    vertex 10.000000000000002 31.999999999999996 6.8
  endloop
endfacet
facet normal 4.223913998454268e-32 -5.471888588906669e-32 1.0
  outer loop
    vertex 14.20444504226559 18.447085729384867 6.8
    vertex 10.000000000000002 7.999999999999999 6.8
    vertex 14.80384757729337 16.999999999999993 6.8
  endloop
endfacet
facet normal 4.223913998454268e-32 -5.471888588906669e-32 1.0
  outer loop
    vertex 14.80384757729337 16.999999999999993 6.8
    vertex 10.000000000000002 7.999999999999999 6.8
    vertex 15.757359312880718 15.75735931288071 6.8
  endloop
endfacet
facet normal 4.223913998454268e-32 -5.471888588906669e-32 1.0
  outer loop
    vertex 15.757359312880718 15.75735931288071 6.8
    vertex 10.000000000000002 7.999999999999999 6.8
    vertex 17.000000000000007 14.803847577293364 6.8
  endloop
endfacet
facet normal 4.223913998454268e-32 -5.471888588906669e-32 1.0
  outer loop
    vertex 17.000000000000007 14.803847577293364 6.8
    vertex 10.000000000000002 7.999999999999999 6.8
    vertex 30.0 7.999999999999999 6.8
  endloop
endfacet
facet normal 4.223913998454268e-32 -5.471888588906669e-32 1.0
  outer loop
    vertex 10.000000000000002 31.999999999999996 6.8
    vertex 14.20444504226559 18.447085729384867 6.8
    vertex 13.999999999999996 19.999999999999993 6.8
  endloop
endfacet
facet normal 4.223913998454268e-32 -5.471888588906669e-32 1.0
  outer loop
    vertex 17.000000000000007 14.803847577293364 6.8
    vertex 30.0 7.999999999999999 6.8
    vertex 18.44708572938488 14.204445042265588 6.8
  endloop
endfacet
facet normal 4.223913998454268e-32 -5.471888588906669e-32 1.0
  outer loop
    vertex 18.44708572938488 14.204445042265588 6.8
    vertex 30.0 7.999999999999999 6.8
    vertex 20.000000000000007 14.0 6.8
  endloop
endfacet
facet normal 4.223913998454268e-32 -5.471888588906669e-32 1.0
  outer loop
    vertex 20.000000000000007 14.0 6.8
    vertex 30.0 7.999999999999999 6.8
    vertex 21.552914270615144 14.204445042265593 6.8
  endloop
endfacet
facet normal 4.223913998454268e-32 -5.471888588906669e-32 1.0
  outer loop
    vertex 21.552914270615144 14.204445042265593 6.8
    vertex 30.0 7.999999999999999 6.8
    vertex 23.000000000000014 14.803847577293377 6.8
  endloop
endfacet
facet normal 4.223913998454268e-32 -5.471888588906669e-32 1.0
  outer loop
    vertex 23.000000000000014 14.803847577293377 6.8
    vertex 30.0 7.999999999999999 6.8
    vertex 24.242640687119295 15.757359312880723 6.8
  endloop
endfacet
facet normal 4.223913998454268e-32 -5.471888588906669e-32 1.0
  outer loop
    vertex 24.242640687119295 15.757359312880723 6.8
    vertex 30.0 7.999999999999999 6.8
    vertex 25.19615242270664 17.000000000000007 6.8
  endloop
endfacet
facet normal 4.223913998454268e-32 -5.471888588906669e-32 1.0
  outer loop
    vertex 25.19615242270664 17.000000000000007 6.8
    vertex 30.0 7.999999999999999 6.8
    vertex 25.795554957734414 18.447085729384884 6.8
  endloop
endfacet
facet normal 4.223913998454268e-32 -5.471888588906669e-32 1.0
  outer loop
    vertex 25.795554957734414 18.447085729384884 6.8
    vertex 30.0 7.999999999999999 6.8
    vertex 26.000000000000004 20.000000000000007 6.8
  endloop
endfacet
facet normal 4.223913998454268e-32 -5.471888588906669e-32 1.0
  outer loop
    vertex 36.0 0.0 6.8
    vertex 24.0 5.0 6.8
    vertex 24.0 0.0 6.8
  endloop
endfacet
facet normal 4.223913998454268e-32 -5.471888588906669e-32 1.0
  outer loop
    vertex 24.0 5.0 6.8
    vertex 36.0 0.0 6.8
    vertex 30.0 5.0 6.8
  endloop
endfacet
facet normal 4.223913998454268e-32 -5.471888588906669e-32 1.0
  outer loop
    vertex 30.0 5.0 6.8
    vertex 36.0 0.0 6.8
    vertex 30.0 7.999999999999999 6.8
  endloop
endfacet
facet normal 4.223913998454268e-32 -5.471888588906669e-32 1.0
  outer loop
    vertex 30.0 7.999999999999999 6.8
    vertex 36.0 0.0 6.8
    vertex 31.999999999999996 10.0 6.8
  endloop
endfacet
facet normal 4.223913998454268e-32 -5.471888588906669e-32 1.0
  outer loop
    vertex 30.0 7.999999999999999 6.8
    vertex 31.999999999999996 10.0 6.8
    vertex 30.0 31.999999999999996 6.8
  endloop
endfacet
facet normal 4.223913998454268e-32 -5.471888588906669e-32 1.0
  outer loop
    vertex 30.0 31.999999999999996 6.8
    vertex 31.999999999999996 10.0 6.8
    vertex 30.0 35.0 6.8
  endloop
endfacet
facet normal 4.223913998454268e-32 -5.471888588906669e-32 1.0
  outer loop
    vertex 31.999999999999996 10.0 6.8
    vertex 36.0 0.0 6.8
    vertex 35.0 10.0 6.8
  endloop
endfacet
facet normal 4.223913998454268e-32 -5.471888588906669e-32 1.0
  outer loop
    vertex 35.0 10.0 6.8
    vertex 36.0 0.0 6.8
    vertex 35.0 15.999999999999998 6.8
  endloop
endfacet
facet normal 4.223913998454268e-32 -5.471888588906669e-32 1.0
  outer loop
    vertex 35.0 15.999999999999998 6.8
    vertex 36.0 0.0 6.8
    vertex 40.0 15.999999999999998 6.8
  endloop
endfacet
facet normal 4.223913998454268e-32 -5.471888588906669e-32 1.0
  outer loop
    vertex 40.0 15.999999999999998 6.8
    vertex 36.0 0.0 6.8
    vertex 37.03527618041008 0.13629669484372772 6.8
  endloop
endfacet
facet normal 4.223913998454268e-32 -5.471888588906669e-32 1.0
  outer loop
    vertex 40.0 15.999999999999998 6.8
    vertex 37.03527618041008 0.13629669484372772 6.8
    vertex 38.0 0.5358983848622452 6.8
  endloop
endfacet
facet normal 4.223913998454268e-32 -5.471888588906669e-32 1.0
  outer loop
    vertex 40.0 15.999999999999998 6.8
    vertex 38.0 0.5358983848622452 6.8
    vertex 38.828427124746185 1.1715728752538104 6.8
  endloop
endfacet
facet normal 4.223913998454268e-32 -5.471888588906669e-32 1.0
  outer loop
    vertex 40.0 15.999999999999998 6.8
    vertex 38.828427124746185 1.1715728752538104 6.8
    vertex 39.46410161513775 1.999999999999999 6.8
  endloop
endfacet
facet normal 4.223913998454268e-32 -5.471888588906669e-32 1.0
  outer loop
    vertex 40.0 15.999999999999998 6.8
    vertex 39.46410161513775 1.999999999999999 6.8
    vertex 39.86370330515627 2.9647238195899144 6.8
  endloop
endfacet
facet normal 4.223913998454268e-32 -5.471888588906669e-32 1.0
  outer loop
    vertex 40.0 15.999999999999998 6.8
    vertex 39.86370330515627 2.9647238195899144 6.8
    vertex 40.0 3.9999999999999996 6.8
  endloop
endfacet
facet normal 4.223913998454268e-32 -5.471888588906669e-32 1.0
  outer loop
    vertex 40.0 24.0 6.8
    vertex 35.0 30.0 6.8
    vertex 35.0 24.0 6.8
  endloop
endfacet
facet normal 4.223913998454268e-32 -5.471888588906669e-32 1.0
  outer loop
    vertex 35.0 30.0 6.8
    vertex 40.0 24.0 6.8
    vertex 36.0 40.0 6.8
  endloop
endfacet
facet normal 4.223913998454268e-32 -5.471888588906669e-32 1.0
  outer loop
    vertex 36.0 40.0 6.8
    vertex 40.0 24.0 6.8
    vertex 37.03527618041009 39.86370330515627 6.8
  endloop
endfacet
facet normal 4.223913998454268e-32 -5.471888588906669e-32 1.0
  outer loop
    vertex 37.03527618041009 39.86370330515627 6.8
    vertex 40.0 24.0 6.8
    vertex 38.00000000000001 39.46410161513775 6.8
  endloop
endfacet
facet normal 4.223913998454268e-32 -5.471888588906669e-32 1.0
  outer loop
    vertex 38.00000000000001 39.46410161513775 6.8
    vertex 40.0 24.0 6.8
    vertex 38.82842712474619 38.828427124746185 6.8
  endloop
endfacet
facet normal 4.223913998454268e-32 -5.471888588906669e-32 1.0
  outer loop
    vertex 38.82842712474619 38.828427124746185 6.8
    vertex 40.0 24.0 6.8
    vertex 39.46410161513775 38.0 6.8
  endloop
endfacet
facet normal 4.223913998454268e-32 -5.471888588906669e-32 1.0
  outer loop
    vertex 39.46410161513775 38.0 6.8
    vertex 40.0 24.0 6.8
    vertex 39.86370330515627 37.03527618041008 6.8
  endloop
endfacet
facet normal 4.223913998454268e-32 -5.471888588906669e-32 1.0
  outer loop
    vertex 39.86370330515627 37.03527618041008 6.8
    vertex 40.0 24.0 6.8
    vertex 40.0 36.0 6.8
  endloop
endfacet
facet normal 4.223913998454268e-32 -5.471888588906669e-32 1.0
  outer loop
    vertex 30.0 35.0 6.8
    vertex 24.0 40.0 6.8
    vertex 24.0 35.0 6.8
  endloop
endfacet
facet normal 4.223913998454268e-32 -5.471888588906669e-32 1.0
  outer loop
    vertex 24.0 40.0 6.8
    vertex 30.0 35.0 6.8
    vertex 36.0 40.0 6.8
  endloop
endfacet
facet normal 4.223913998454268e-32 -5.471888588906669e-32 1.0
  outer loop
    vertex 36.0 40.0 6.8
    vertex 30.0 35.0 6.8
    vertex 31.999999999999996 30.0 6.8
  endloop
endfacet
facet normal 4.223913998454268e-32 -5.471888588906669e-32 1.0
  outer loop
    vertex 31.999999999999996 30.0 6.8
    vertex 30.0 35.0 6.8
    vertex 31.999999999999996 10.0 6.8
  endloop
endfacet
facet normal 4.223913998454268e-32 -5.471888588906669e-32 1.0
  outer loop
    vertex 36.0 40.0 6.8
    vertex 31.999999999999996 30.0 6.8
    vertex 35.0 30.0 6.8
  endloop
endfacet
facet normal 4.223913998454268e-32 -5.471888588906669e-32 1.0
  outer loop
    vertex 10.000000000000002 31.999999999999996 6.8
    vertex 16.999999999999996 25.19615242270663 6.8
    vertex 30.0 31.999999999999996 6.8
  endloop
endfacet
facet normal 4.223913998454268e-32 -5.471888588906669e-32 1.0
  outer loop
    vertex 16.999999999999996 25.19615242270663 6.8
    vertex 10.000000000000002 31.999999999999996 6.8
    vertex 15.75735931288071 24.24264068711928 6.8
  endloop
endfacet
facet normal 4.223913998454268e-32 -5.471888588906669e-32 1.0
  outer loop
    vertex 15.75735931288071 24.24264068711928 6.8
    vertex 10.000000000000002 31.999999999999996 6.8
    vertex 14.803847577293364 22.999999999999993 6.8
  endloop
endfacet
facet normal 4.223913998454268e-32 -5.471888588906669e-32 1.0
  outer loop
    vertex 14.803847577293364 22.999999999999993 6.8
    vertex 10.000000000000002 31.999999999999996 6.8
    vertex 14.204445042265588 21.552914270615116 6.8
  endloop
endfacet
facet normal 4.223913998454268e-32 -5.471888588906669e-32 1.0
  outer loop
    vertex 14.204445042265588 21.552914270615116 6.8
    vertex 10.000000000000002 31.999999999999996 6.8
    vertex 13.999999999999996 19.999999999999993 6.8
  endloop
endfacet
facet normal 4.223913998454268e-32 -5.471888588906669e-32 1.0
  outer loop
    vertex 30.0 31.999999999999996 6.8
    vertex 16.999999999999996 25.19615242270663 6.8
    vertex 18.44708572938487 25.795554957734407 6.8
  endloop
endfacet
facet normal 4.223913998454268e-32 -5.471888588906669e-32 1.0
  outer loop
    vertex 30.0 31.999999999999996 6.8
    vertex 18.44708572938487 25.795554957734407 6.8
    vertex 19.999999999999996 26.000000000000004 6.8
  endloop
endfacet
facet normal 4.223913998454268e-32 -5.471888588906669e-32 1.0
  outer loop
    vertex 30.0 31.999999999999996 6.8
    vertex 19.999999999999996 26.000000000000004 6.8
    vertex 21.552914270615123 25.795554957734414 6.8
  endloop
endfacet
facet normal 4.223913998454268e-32 -5.471888588906669e-32 1.0
  outer loop
    vertex 30.0 31.999999999999996 6.8
    vertex 21.552914270615123 25.795554957734414 6.8
    vertex 22.999999999999996 25.196152422706632 6.8
  endloop
endfacet
facet normal 4.223913998454268e-32 -5.471888588906669e-32 1.0
  outer loop
    vertex 30.0 31.999999999999996 6.8
    vertex 22.999999999999996 25.196152422706632 6.8
    vertex 24.24264068711928 24.242640687119287 6.8
  endloop
endfacet
facet normal 4.223913998454268e-32 -5.471888588906669e-32 1.0
  outer loop
    vertex 30.0 31.999999999999996 6.8
    vertex 24.24264068711928 24.242640687119287 6.8
    vertex 25.19615242270663 23.000000000000007 6.8
  endloop
endfacet
facet normal 4.223913998454268e-32 -5.471888588906669e-32 1.0
  outer loop
    vertex 30.0 31.999999999999996 6.8
    vertex 25.19615242270663 23.000000000000007 6.8
    vertex 25.795554957734407 21.55291427061513 6.8
  endloop
endfacet
facet normal 4.223913998454268e-32 -5.471888588906669e-32 1.0
  outer loop
    vertex 30.0 31.999999999999996 6.8
    vertex 25.795554957734407 21.55291427061513 6.8
    vertex 26.000000000000004 20.000000000000007 6.8
  endloop
endfacet
facet normal 4.223913998454268e-32 -5.471888588906669e-32 1.0
  outer loop
    vertex 30.0 31.999999999999996 6.8
    vertex 26.000000000000004 20.000000000000007 6.8
    vertex 30.0 7.999999999999999 6.8
  endloop
endfacet
facet normal 4.223913998454268e-32 -5.471888588906669e-32 1.0
  outer loop
    vertex 3.9999999999999996 0.0 6.8
    vertex 10.000000000000002 5.0 6.8
    vertex 5.0 10.0 6.8
  endloop
endfacet
facet normal 4.223913998454268e-32 -5.471888588906669e-32 1.0
  outer loop
    vertex 10.000000000000002 5.0 6.8
    vertex 3.9999999999999996 0.0 6.8
    vertex 16.0 0.0 6.8
  endloop
endfacet
facet normal 4.223913998454268e-32 -5.471888588906669e-32 1.0
  outer loop
    vertex 5.0 10.0 6.8
    vertex 10.000000000000002 5.0 6.8
    vertex 7.999999999999999 10.0 6.8
  endloop
endfacet
facet normal 4.223913998454268e-32 -5.471888588906669e-32 1.0
  outer loop
    vertex 7.999999999999999 10.0 6.8
    vertex 10.000000000000002 5.0 6.8
    vertex 7.999999999999999 30.0 6.8
  endloop
endfacet
facet normal 4.223913998454268e-32 -5.471888588906669e-32 1.0
  outer loop
    vertex 10.000000000000002 5.0 6.8
    vertex 16.0 0.0 6.8
    vertex 16.0 5.0 6.8
  endloop
endfacet
facet normal 4.223913998454268e-32 -5.471888588906669e-32 1.0
  outer loop
    vertex 5.0 24.0 6.8
    vertex 0.0 36.0 6.8
    vertex 0.0 24.0 6.8
  endloop
endfacet
facet normal 4.223913998454268e-32 -5.471888588906669e-32 1.0
  outer loop
    vertex 0.0 36.0 6.8
    vertex 5.0 24.0 6.8
    vertex 0.13629669484372842 37.03527618041009 6.8
  endloop
endfacet
facet normal 4.223913998454268e-32 -5.471888588906669e-32 1.0
  outer loop
    vertex 0.13629669484372842 37.03527618041009 6.8
    vertex 5.0 24.0 6.8
    vertex 0.5358983848622466 38.00000000000001 6.8
  endloop
endfacet
facet normal 4.223913998454268e-32 -5.471888588906669e-32 1.0
  outer loop
    vertex 0.5358983848622466 38.00000000000001 6.8
    vertex 5.0 24.0 6.8
    vertex 1.171572875253811 38.82842712474619 6.8
  endloop
endfacet
facet normal 4.223913998454268e-32 -5.471888588906669e-32 1.0
  outer loop
    vertex 1.171572875253811 38.82842712474619 6.8
    vertex 5.0 24.0 6.8
    vertex 2.000000000000001 39.46410161513775 6.8
  endloop
endfacet
facet normal 4.223913998454268e-32 -5.471888588906669e-32 1.0
  outer loop
    vertex 2.000000000000001 39.46410161513775 6.8
    vertex 5.0 24.0 6.8
    vertex 2.964723819589917 39.86370330515627 6.8
  endloop
endfacet
facet normal 4.223913998454268e-32 -5.471888588906669e-32 1.0
  outer loop
    vertex 2.964723819589917 39.86370330515627 6.8
    vertex 5.0 24.0 6.8
    vertex 3.9999999999999996 40.0 6.8
  endloop
endfacet
facet normal 4.223913998454268e-32 -5.471888588906669e-32 1.0
  outer loop
    vertex 3.9999999999999996 40.0 6.8
    vertex 5.0 24.0 6.8
    vertex 5.0 30.0 6.8
  endloop
endfacet
facet normal 4.223913998454268e-32 -5.471888588906669e-32 1.0
  outer loop
    vertex 3.9999999999999996 40.0 6.8
    vertex 5.0 30.0 6.8
    vertex 10.000000000000002 35.0 6.8
  endloop
endfacet
facet normal 4.223913998454268e-32 -5.471888588906669e-32 1.0
  outer loop
    vertex 3.9999999999999996 40.0 6.8
    vertex 10.000000000000002 35.0 6.8
    vertex 16.0 40.0 6.8
  endloop
endfacet
facet normal 4.223913998454268e-32 -5.471888588906669e-32 1.0
  outer loop
    vertex 10.000000000000002 35.0 6.8
    vertex 5.0 30.0 6.8
    vertex 7.999999999999999 30.0 6.8
  endloop
endfacet
facet normal 4.223913998454268e-32 -5.471888588906669e-32 1.0
  outer loop
    vertex 10.000000000000002 35.0 6.8
    vertex 7.999999999999999 30.0 6.8
    vertex 10.000000000000002 5.0 6.8
  endloop
endfacet
facet normal 4.223913998454268e-32 -5.471888588906669e-32 1.0
  outer loop
    vertex 10.000000000000002 35.0 6.8
    vertex 10.000000000000002 5.0 6.8
    vertex 10.000000000000002 7.999999999999999 6.8
  endloop
endfacet
facet normal 4.223913998454268e-32 -5.471888588906669e-32 1.0
  outer loop
    vertex 10.000000000000002 35.0 6.8
    vertex 10.000000000000002 7.999999999999999 6.8
    vertex 10.000000000000002 31.999999999999996 6.8
  endloop
endfacet
facet normal 4.223913998454268e-32 -5.471888588906669e-32 1.0
  outer loop
    vertex 16.0 40.0 6.8
    vertex 10.000000000000002 35.0 6.8
    vertex 16.0 35.0 6.8
  endloop
endfacet
facet normal 4.223913998454268e-32 -5.471888588906669e-32 1.0
  outer loop
    vertex 0.13629669484372772 2.9647238195899166 6.8
    vertex 0.0 15.999999999999998 6.8
    vertex 0.0 3.9999999999999996 6.8
  endloop
endfacet
facet normal 4.223913998454268e-32 -5.471888588906669e-32 1.0
  outer loop
    vertex 0.0 15.999999999999998 6.8
    vertex 0.13629669484372772 2.9647238195899166 6.8
    vertex 5.0 15.999999999999998 6.8
  endloop
endfacet
facet normal 4.223913998454268e-32 -5.471888588906669e-32 1.0
  outer loop
    vertex 5.0 15.999999999999998 6.8
    vertex 0.13629669484372772 2.9647238195899166 6.8
    vertex 0.5358983848622458 2.0 6.8
  endloop
endfacet
facet normal 4.223913998454268e-32 -5.471888588906669e-32 1.0
  outer loop
    vertex 5.0 15.999999999999998 6.8
    vertex 0.5358983848622458 2.0 6.8
    vertex 1.17157287525381 1.17157287525381 6.8
  endloop
endfacet
facet normal 4.223913998454268e-32 -5.471888588906669e-32 1.0
  outer loop
    vertex 5.0 15.999999999999998 6.8
    vertex 1.17157287525381 1.17157287525381 6.8
    vertex 1.9999999999999998 0.5358983848622458 6.8
  endloop
endfacet
facet normal 4.223913998454268e-32 -5.471888588906669e-32 1.0
  outer loop
    vertex 5.0 15.999999999999998 6.8
    vertex 1.9999999999999998 0.5358983848622458 6.8
    vertex 2.964723819589916 0.136296694843727 6.8
  endloop
endfacet
facet normal 4.223913998454268e-32 -5.471888588906669e-32 1.0
  outer loop
    vertex 5.0 15.999999999999998 6.8
    vertex 2.964723819589916 0.136296694843727 6.8
    vertex 3.9999999999999996 0.0 6.8
  endloop
endfacet
facet normal 4.223913998454268e-32 -5.471888588906669e-32 1.0
  outer loop
    vertex 5.0 15.999999999999998 6.8
    vertex 3.9999999999999996 0.0 6.8
    vertex 5.0 10.0 6.8
  endloop
endfacet
facet normal 0.0 0.0 1.0
  outer loop
    vertex 40.0 15.999999999999998 10.8
    vertex 35.0 24.0 10.8
    vertex 35.0 15.999999999999998 10.8
  endloop
endfacet
facet normal 0.0 0.0 1.0
  outer loop
    vertex 35.0 24.0 10.8
    vertex 40.0 15.999999999999998 10.8
    vertex 40.0 24.0 10.8
  endloop
endfacet
facet normal 0.0 0.0 1.0
  outer loop
    vertex 35.0 10.0 10.8
    vertex 31.999999999999996 30.0 10.8
    vertex 31.999999999999996 10.0 10.8
  endloop
endfacet
facet normal 0.0 0.0 1.0
  outer loop
    vertex 31.999999999999996 30.0 10.8
    vertex 35.0 10.0 10.8
    vertex 35.0 30.0 10.8
  endloop
endfacet
facet normal 0.0 0.0 1.0
  outer loop
    vertex 35.0 30.0 10.8
    vertex 35.0 10.0 10.8
    vertex 35.0 15.999999999999998 10.8
  endloop
endfacet
facet normal 0.0 0.0 1.0
  outer loop
    vertex 35.0 30.0 10.8
    vertex 35.0 15.999999999999998 10.8
    vertex 35.0 24.0 10.8
  endloop
endfacet
facet normal 0.0 1.0 0.0
  outer loop
    vertex 35.0 24.0 10.8
    vertex 40.0 24.0 6.8
    vertex 35.0 24.0 6.8
  endloop
endfacet
facet normal 0.0 1.0 0.0
  outer loop
    vertex 40.0 24.0 6.8
    vertex 35.0 24.0 10.8
    vertex 40.0 24.0 10.8
  endloop
endfacet
facet normal 1.0 -0.0 0.0
  outer loop
    vertex 35.0 30.0 6.8
    vertex 35.0 24.0 10.8
    vertex 35.0 24.0 6.8
  endloop
endfacet
facet normal 1.0 -0.0 0.0
  outer loop
    vertex 35.0 24.0 10.8
    vertex 35.0 30.0 6.8
    vertex 35.0 30.0 10.8
  endloop
endfacet
facet normal 0.0 1.0 0.0
  outer loop
    vertex 31.999999999999996 30.0 10.8
    vertex 35.0 30.0 6.8
    vertex 31.999999999999996 30.0 6.8
  endloop
endfacet
facet normal 0.0 1.0 0.0
  outer loop
    vertex 35.0 30.0 6.8
    vertex 31.999999999999996 30.0 10.8
    vertex 35.0 30.0 10.8
  endloop
endfacet
facet normal -1.0 -0.0 -0.0
  outer loop
    vertex 31.999999999999996 30.0 10.8
    vertex 31.999999999999996 10.0 6.8
    vertex 31.999999999999996 10.0 10.8
  endloop
endfacet
facet normal -1.0 -0.0 -0.0
  outer loop
    vertex 31.999999999999996 10.0 6.8
    vertex 31.999999999999996 30.0 10.8
    vertex 31.999999999999996 30.0 6.8
  endloop
endfacet
facet normal 0.0 -1.0 0.0
  outer loop
    vertex 35.0 10.0 10.8
    vertex 31.999999999999996 10.0 6.8
    vertex 35.0 10.0 6.8
  endloop
endfacet
facet normal 0.0 -1.0 0.0
  outer loop
    vertex 31.999999999999996 10.0 6.8
    vertex 35.0 10.0 10.8
    vertex 31.999999999999996 10.0 10.8
  endloop
endfacet
facet normal 1.0 -0.0 0.0
  outer loop
    vertex 35.0 15.999999999999998 6.8
    vertex 35.0 10.0 10.8
    vertex 35.0 10.0 6.8
  endloop
endfacet
facet normal 1.0 -0.0 0.0
  outer loop
    vertex 35.0 10.0 10.8
    vertex 35.0 15.999999999999998 6.8
    vertex 35.0 15.999999999999998 10.8
  endloop
endfacet
facet normal 0.0 -1.0 0.0
  outer loop
    vertex 40.0 15.999999999999998 10.8
    vertex 35.0 15.999999999999998 6.8
    vertex 40.0 15.999999999999998 6.8
  endloop
endfacet
facet normal 0.0 -1.0 0.0
  outer loop
    vertex 35.0 15.999999999999998 6.8
    vertex 40.0 15.999999999999998 10.8
    vertex 35.0 15.999999999999998 10.8
  endloop
endfacet
facet normal 0.0 0.0 1.0
  outer loop
    vertex 24.0 0.0 10.800000000000006
    vertex 16.0 5.0 10.800000000000006
    vertex 16.0 0.0 10.800000000000006
  endloop
endfacet
facet normal 0.0 0.0 1.0
  outer loop
    vertex 16.0 5.0 10.800000000000006
    vertex 10.000000000000002 7.999999999999999 10.800000000000006
    vertex 10.000000000000002 5.0 10.800000000000006
  endloop
endfacet
facet normal 0.0 0.0 1.0
  outer loop
    vertex 10.000000000000002 7.999999999999999 10.800000000000006
    vertex 16.0 5.0 10.800000000000006
    vertex 30.0 7.999999999999999 10.800000000000006
  endloop
endfacet
facet normal 0.0 0.0 1.0
  outer loop
    vertex 30.0 7.999999999999999 10.800000000000006
    vertex 16.0 5.0 10.800000000000006
    vertex 24.0 5.0 10.800000000000006
  endloop
endfacet
facet normal 0.0 0.0 1.0
  outer loop
    vertex 24.0 5.0 10.800000000000006
    vertex 16.0 5.0 10.800000000000006
    vertex 24.0 0.0 10.800000000000006
  endloop
endfacet
facet normal 0.0 0.0 1.0
  outer loop
    vertex 30.0 7.999999999999999 10.800000000000006
    vertex 24.0 5.0 10.800000000000006
    vertex 30.0 5.0 10.800000000000006
  endloop
endfacet
facet normal 1.0 -0.0 0.0
  outer loop
    vertex 30.0 7.999999999999999 6.8
    vertex 30.0 5.0 10.800000000000006
    vertex 30.0 5.0 6.8
  endloop
endfacet
facet normal 1.0 -0.0 0.0
  outer loop
    vertex 30.0 5.0 10.800000000000006
    vertex 30.0 7.999999999999999 6.8
    vertex 30.0 7.999999999999999 10.800000000000006
  endloop
endfacet
facet normal 0.0 1.0 0.0
  outer loop
    vertex 10.000000000000002 7.999999999999999 10.800000000000006
    vertex 30.0 7.999999999999999 6.8
    vertex 10.000000000000002 7.999999999999999 6.8
  endloop
endfacet
facet normal 0.0 1.0 0.0
  outer loop
    vertex 30.0 7.999999999999999 6.8
    vertex 10.000000000000002 7.999999999999999 10.800000000000006
    vertex 30.0 7.999999999999999 10.800000000000006
  endloop
endfacet
facet normal -1.0 -0.0 -0.0
  outer loop
    vertex 10.000000000000002 7.999999999999999 10.800000000000006
    vertex 10.000000000000002 5.0 6.8
    vertex 10.000000000000002 5.0 10.800000000000006
  endloop
endfacet
facet normal -1.0 -0.0 -0.0
  outer loop
    vertex 10.000000000000002 5.0 6.8
    vertex 10.000000000000002 7.999999999999999 10.800000000000006
    vertex 10.000000000000002 7.999999999999999 6.8
  endloop
endfacet
facet normal 0.0 -1.0 0.0
  outer loop
    vertex 16.0 5.0 10.800000000000006
    vertex 10.000000000000002 5.0 6.8
    vertex 16.0 5.0 6.8
  endloop
endfacet
facet normal 0.0 -1.0 0.0
  outer loop
    vertex 10.000000000000002 5.0 6.8
    vertex 16.0 5.0 10.800000000000006
    vertex 10.000000000000002 5.0 10.800000000000006
  endloop
endfacet
facet normal -1.0 -0.0 -0.0
  outer loop
    vertex 16.0 5.0 10.800000000000006
    vertex 16.0 0.0 6.8
    vertex 16.0 0.0 10.800000000000006
  endloop
endfacet
facet normal -1.0 -0.0 -0.0
  outer loop
    vertex 16.0 0.0 6.8
    vertex 16.0 5.0 10.800000000000006
    vertex 16.0 5.0 6.8
  endloop
endfacet
facet normal 1.0 -0.0 0.0
  outer loop
    vertex 24.0 5.0 6.8
    vertex 24.0 0.0 10.800000000000006
    vertex 24.0 0.0 6.8
  endloop
endfacet
facet normal 1.0 -0.0 0.0
  outer loop
    vertex 24.0 0.0 10.800000000000006
    vertex 24.0 5.0 6.8
    vertex 24.0 5.0 10.800000000000006
  endloop
endfacet
facet normal 0.0 -1.0 0.0
  outer loop
    vertex 30.0 5.0 10.800000000000006
    vertex 24.0 5.0 6.8
    vertex 30.0 5.0 6.8
  endloop
endfacet
facet normal 0.0 -1.0 0.0
  outer loop
    vertex 24.0 5.0 6.8
    vertex 30.0 5.0 10.800000000000006
    vertex 24.0 5.0 10.800000000000006
  endloop
endfacet
facet normal 0.0 0.0 1.0
  outer loop
    vertex 7.999999999999999 10.0 10.800000000000008
    vertex 5.0 15.999999999999998 10.800000000000008
    vertex 5.0 10.0 10.800000000000008
  endloop
endfacet
facet normal 0.0 0.0 1.0
  outer loop
    vertex 5.0 15.999999999999998 10.800000000000008
    vertex 7.999999999999999 10.0 10.800000000000008
    vertex 5.0 24.0 10.800000000000008
  endloop
endfacet
facet normal 0.0 0.0 1.0
  outer loop
    vertex 5.0 24.0 10.800000000000008
    vertex 7.999999999999999 10.0 10.800000000000008
    vertex 5.0 30.0 10.800000000000008
  endloop
endfacet
facet normal 0.0 0.0 1.0
  outer loop
    vertex 5.0 30.0 10.800000000000008
    vertex 7.999999999999999 10.0 10.800000000000008
    vertex 7.999999999999999 30.0 10.800000000000008
  endloop
endfacet
facet normal 0.0 0.0 1.0
  outer loop
    vertex 5.0 15.999999999999998 10.800000000000008
    vertex 0.0 24.0 10.800000000000008
    vertex 0.0 15.999999999999998 10.800000000000008
  endloop
endfacet
facet normal 0.0 0.0 1.0
  outer loop
    vertex 0.0 24.0 10.800000000000008
    vertex 5.0 15.999999999999998 10.800000000000008
    vertex 5.0 24.0 10.800000000000008
  endloop
endfacet
facet normal -1.0 -0.0 -0.0
  outer loop
    vertex 5.0 30.0 10.800000000000008
    vertex 5.0 24.0 6.8
    vertex 5.0 24.0 10.800000000000008
  endloop
endfacet
facet normal -1.0 -0.0 -0.0
  outer loop
    vertex 5.0 24.0 6.8
    vertex 5.0 30.0 10.800000000000008
    vertex 5.0 30.0 6.8
  endloop
endfacet
facet normal 0.0 1.0 0.0
  outer loop
    vertex 0.0 24.0 10.800000000000008
    vertex 5.0 24.0 6.8
    vertex 0.0 24.0 6.8
  endloop
endfacet
facet normal 0.0 1.0 0.0
  outer loop
    vertex 5.0 24.0 6.8
    vertex 0.0 24.0 10.800000000000008
    vertex 5.0 24.0 10.800000000000008
  endloop
endfacet
facet normal 0.0 -1.0 0.0
  outer loop
    vertex 5.0 15.999999999999998 10.800000000000008
    vertex 0.0 15.999999999999998 6.8
    vertex 5.0 15.999999999999998 6.8
  endloop
endfacet
facet normal 0.0 -1.0 0.0
  outer loop
    vertex 0.0 15.999999999999998 6.8
    vertex 5.0 15.999999999999998 10.800000000000008
    vertex 0.0 15.999999999999998 10.800000000000008
  endloop
endfacet
facet normal -1.0 -0.0 -0.0
  outer loop
    vertex 5.0 15.999999999999998 10.800000000000008
    vertex 5.0 10.0 6.8
    vertex 5.0 10.0 10.800000000000008
  endloop
endfacet
facet normal -1.0 -0.0 -0.0
  outer loop
    vertex 5.0 10.0 6.8
    vertex 5.0 15.999999999999998 10.800000000000008
    vertex 5.0 15.999999999999998 6.8
  endloop
endfacet
facet normal 0.0 -1.0 0.0
  outer loop
    vertex 7.999999999999999 10.0 10.800000000000008
    vertex 5.0 10.0 6.8
    vertex 7.999999999999999 10.0 6.8
  endloop
endfacet
facet normal 0.0 -1.0 0.0
  outer loop
    vertex 5.0 10.0 6.8
    vertex 7.999999999999999 10.0 10.800000000000008
    vertex 5.0 10.0 10.800000000000008
  endloop
endfacet
facet normal 1.0 -0.0 0.0
  outer loop
    vertex 7.999999999999999 30.0 6.8
    vertex 7.999999999999999 10.0 10.800000000000008
    vertex 7.999999999999999 10.0 6.8
  endloop
endfacet
facet normal 1.0 -0.0 0.0
  outer loop
    vertex 7.999999999999999 10.0 10.800000000000008
    vertex 7.999999999999999 30.0 6.8
    vertex 7.999999999999999 30.0 10.800000000000008
  endloop
endfacet
facet normal 0.0 1.0 0.0
  outer loop
    vertex 5.0 30.0 10.800000000000008
    vertex 7.999999999999999 30.0 6.8
    vertex 5.0 30.0 6.8
  endloop
endfacet
facet normal 0.0 1.0 0.0
  outer loop
    vertex 7.999999999999999 30.0 6.8
    vertex 5.0 30.0 10.800000000000008
    vertex 7.999999999999999 30.0 10.800000000000008
  endloop
endfacet
facet normal 0.0 0.0 1.0
  outer loop
    vertex 30.0 31.999999999999996 10.80000000000002
    vertex 10.000000000000002 35.0 10.80000000000002
    vertex 10.000000000000002 31.999999999999996 10.80000000000002
  endloop
endfacet
facet normal 0.0 0.0 1.0
  outer loop
    vertex 10.000000000000002 35.0 10.80000000000002
    vertex 30.0 31.999999999999996 10.80000000000002
    vertex 16.0 35.0 10.80000000000002
  endloop
endfacet
facet normal 0.0 0.0 1.0
  outer loop
    vertex 16.0 35.0 10.80000000000002
    vertex 30.0 31.999999999999996 10.80000000000002
    vertex 24.0 35.0 10.80000000000002
  endloop
endfacet
facet normal 0.0 0.0 1.0
  outer loop
    vertex 16.0 35.0 10.80000000000002
    vertex 24.0 35.0 10.80000000000002
    vertex 16.0 40.0 10.80000000000002
  endloop
endfacet
facet normal 0.0 0.0 1.0
  outer loop
    vertex 24.0 35.0 10.80000000000002
    vertex 30.0 31.999999999999996 10.80000000000002
    vertex 30.0 35.0 10.80000000000002
  endloop
endfacet
facet normal 0.0 0.0 1.0
  outer loop
    vertex 24.0 40.0 10.80000000000002
    vertex 16.0 40.0 10.80000000000002
    vertex 24.0 35.0 10.80000000000002
  endloop
endfacet
facet normal 0.0 1.0 0.0
  outer loop
    vertex 24.0 35.0 10.80000000000002
    vertex 30.0 35.0 6.8
    vertex 24.0 35.0 6.8
  endloop
endfacet
facet normal 0.0 1.0 0.0
  outer loop
    vertex 30.0 35.0 6.8
    vertex 24.0 35.0 10.80000000000002
    vertex 30.0 35.0 10.80000000000002
  endloop
endfacet
facet normal 1.0 -0.0 0.0
  outer loop
    vertex 24.0 40.0 6.8
    vertex 24.0 35.0 10.80000000000002
    vertex 24.0 35.0 6.8
  endloop
endfacet
facet normal 1.0 -0.0 0.0
  outer loop
    vertex 24.0 35.0 10.80000000000002
    vertex 24.0 40.0 6.8
    vertex 24.0 40.0 10.80000000000002
  endloop
endfacet
facet normal -1.0 -0.0 -0.0
  outer loop
    vertex 16.0 40.0 10.80000000000002
    vertex 16.0 35.0 6.8
    vertex 16.0 35.0 10.80000000000002
  endloop
endfacet
facet normal -1.0 -0.0 -0.0
  outer loop
    vertex 16.0 35.0 6.8
    vertex 16.0 40.0 10.80000000000002
    vertex 16.0 40.0 6.8
  endloop
endfacet
facet normal 0.0 1.0 0.0
  outer loop
    vertex 10.000000000000002 35.0 10.80000000000002
    vertex 16.0 35.0 6.8
    vertex 10.000000000000002 35.0 6.8
  endloop
endfacet
facet normal 0.0 1.0 0.0
  outer loop
    vertex 16.0 35.0 6.8
    vertex 10.000000000000002 35.0 10.80000000000002
    vertex 16.0 35.0 10.80000000000002
  endloop
endfacet
facet normal -1.0 -0.0 -0.0
  outer loop
    vertex 10.000000000000002 35.0 10.80000000000002
    vertex 10.000000000000002 31.999999999999996 6.8
    vertex 10.000000000000002 31.999999999999996 10.80000000000002
  endloop
endfacet
facet normal -1.0 -0.0 -0.0
  outer loop
    vertex 10.000000000000002 31.999999999999996 6.8
    vertex 10.000000000000002 35.0 10.80000000000002
    vertex 10.000000000000002 35.0 6.8
  endloop
endfacet
facet normal 0.0 -1.0 0.0
  outer loop
    vertex 30.0 31.999999999999996 10.80000000000002
    vertex 10.000000000000002 31.999999999999996 6.8
    vertex 30.0 31.999999999999996 6.8
  endloop
endfacet
facet normal 0.0 -1.0 0.0
  outer loop
    vertex 10.000000000000002 31.999999999999996 6.8
    vertex 30.0 31.999999999999996 10.80000000000002
    vertex 10.000000000000002 31.999999999999996 10.80000000000002
  endloop
endfacet
facet normal 1.0 -0.0 0.0
  outer loop
    vertex 30.0 35.0 6.8
    vertex 30.0 31.999999999999996 10.80000000000002
    vertex 30.0 31.999999999999996 6.8
  endloop
endfacet
facet normal 1.0 -0.0 0.0
  outer loop
    vertex 30.0 31.999999999999996 10.80000000000002
    vertex 30.0 35.0 6.8
    vertex 30.0 35.0 10.80000000000002
  endloop
endfacet
facet normal -0.9914448613738104 -0.13052619222005243 -0.0
  outer loop
    vertex 0.0 3.9999999999999996 6.8
    vertex 0.13629669484372772 2.9647238195899166 0.0
    vertex 0.13629669484372772 2.9647238195899166 6.8
  endloop
endfacet
facet normal -0.9659258262890682 -0.258819045102521 0.0
  outer loop
    vertex 0.13629669484372772 2.9647238195899166 0.0
    vertex 0.0 3.9999999999999996 6.8
    vertex 0.0 3.9999999999999996 0.0
  endloop
endfacet
facet normal -1.0 0.0 0.0
  outer loop
    vertex 0.0 24.0 10.800000000000008
    vertex 0.0 15.999999999999998 6.8
    vertex 0.0 15.999999999999998 10.800000000000008
  endloop
endfacet
facet normal -1.0 0.0 0.0
  outer loop
    vertex 0.0 15.999999999999998 6.8
    vertex 0.0 3.9999999999999996 0.0
    vertex 0.0 3.9999999999999996 6.8
  endloop
endfacet
facet normal -1.0 0.0 0.0
  outer loop
    vertex 0.0 3.9999999999999996 0.0
    vertex 0.0 15.999999999999998 6.8
    vertex 0.0 36.0 0.0
  endloop
endfacet
facet normal -1.0 0.0 0.0
  outer loop
    vertex 0.0 36.0 0.0
    vertex 0.0 15.999999999999998 6.8
    vertex 0.0 24.0 6.8
  endloop
endfacet
facet normal -1.0 0.0 0.0
  outer loop
    vertex 0.0 24.0 6.8
    vertex 0.0 15.999999999999998 6.8
    vertex 0.0 24.0 10.800000000000008
  endloop
endfacet
facet normal -1.0 0.0 0.0
  outer loop
    vertex 0.0 36.0 0.0
    vertex 0.0 24.0 6.8
    vertex 0.0 36.0 6.8
  endloop
endfacet
facet normal -0.9659258262890682 0.2588190451025212 0.0
  outer loop
    vertex 0.13629669484372842 37.03527618041009 6.8
    vertex 0.0 36.0 0.0
    vertex 0.0 36.0 6.8
  endloop
endfacet
facet normal -0.9914448613738104 0.1305261922200528 0.0
  outer loop
    vertex 0.0 36.0 0.0
    vertex 0.13629669484372842 37.03527618041009 6.8
    vertex 0.13629669484372842 37.03527618041009 0.0
  endloop
endfacet
facet normal -0.8660254037844387 0.5 0.0
  outer loop
    vertex 0.5358983848622466 38.00000000000001 6.8
    vertex 0.13629669484372842 37.03527618041009 0.0
    vertex 0.13629669484372842 37.03527618041009 6.8
  endloop
endfacet
facet normal -0.9659258262890682 0.2588190451025212 0.0
  outer loop
    vertex 0.13629669484372842 37.03527618041009 0.0
    vertex 0.5358983848622466 38.00000000000001 6.8
    vertex 0.5358983848622466 38.00000000000001 0.0
  endloop
endfacet
endsolid Item40Plug
